<svg id="Sample"
    xmlns="http://www.w3.org/2000/svg"
    xmlns:xlink="http://www.w3.org/1999/xlink" viewBox="0 0 349.78 420.44">
    <defs>
        <style>.cls-1{fill:url(#New_Gradient_Swatch_copy);}.cls-2{fill:url(#New_Gradient_Swatch_copy-2);}.cls-3{fill:#fff;}</style>
        <linearGradient id="New_Gradient_Swatch_copy" x1="445.08" y1="291.43" x2="620.37" y2="466.73" gradientUnits="userSpaceOnUse">
            <stop offset="0" stop-color="#f69322"/>
            <stop offset="1" stop-color="#f15b2a"/>
        </linearGradient>
        <linearGradient id="New_Gradient_Swatch_copy-2" x1="355.05" y1="237.98" x2="584.94" y2="467.87" xlink:href="#New_Gradient_Swatch_copy"/>
    </defs>
    <g id="Sample_03_V2" data-name="Sample 03 V2">
        <path class="cls-1" d="M654.58,373.29C648.16,456.83,581.81,525.43,498,534.07c-7.07.73-24.66.77-24.69.77C470,470.63,532,443.11,568,375.52c24.62-46.21-3.36-113.37-3.36-113.37s5.6,39.8-40.13,91C460,425.38,464.21,463.54,465.41,469.54c-27.8-117.7,119.9-135.86,75.32-273.76C664,241.26,654.93,368.7,654.58,373.29Z" transform="translate(-305.07 -149.75)"/>
        <path class="cls-2" d="M532.51,195.14s-.71-.26,0-.06c-1.42-23.18-17.76-41.65-20.74-44.85l-.25-.26-.21-.22.33.61c34,63.59-36.38,88.9-80.94,158.17-41.79,65-24.42,122.86-24,124.19-.57-1.06-28.75-53.88,2.43-123.49C428,267,484,229.78,502.22,201.53a86.62,86.62,0,0,0,7.68-14.65c-9.14-1.14-24.11-1.92-29.82-1.92-96.65,0-175,79.62-175,175,0,81,56,151,132.22,169.72,19,25.56,44.71,40.13,45.33,40.48-1.12-1.25-88.28-98.37-50.42-211.16C460,276.2,533.42,249.16,532.51,195.14Z" transform="translate(-305.07 -149.75)"/>
        <path class="cls-3" d="M568,375.52c-36,67.59-98,95.11-94.73,159.32C475,549,475.64,552,482.62,570.19c-1.12-1.25-88.28-98.37-50.42-211.16C460,276.2,533.42,249.16,532.51,195.14c0,0-.71-.26,0-.06-1.47-23.93-18.83-42.84-21-45.11,9.87,9.91,21.06,25,29.21,45.81,44.58,137.9-103.12,156.06-75.32,273.76-1.2-6-5.43-44.16,59.11-116.41,45.73-51.18,40.13-91,40.13-91S592.63,329.31,568,375.52Z" transform="translate(-305.07 -149.75)"/>
        <path class="cls-3" d="M511.64,150.36c4.46,14.32,2.06,26.9-1.74,36.52a86.62,86.62,0,0,1-7.68,14.65c-18,28.4-74.18,65.45-93.11,107.7-31.18,69.61-3,122.43-2.43,123.49-.4-1.33-17.77-59.2,24-124.19C475.26,239.26,545.66,214,511.64,150.36Z" transform="translate(-305.07 -149.75)"/>
    </g>
</svg>